<svg width="18" height="18" viewBox="0 0 18 18" fill="none" xmlns="http://www.w3.org/2000/svg">
<g clip-path="url(#clip0_9836_56673)">
<path d="M8.87715 13.3945L4.37715 15.1172C4.16973 15.1945 3.95176 15.0363 3.96231 14.8148L4.2084 10.0019C4.21192 9.9281 4.18731 9.85427 4.14161 9.79451L1.11114 6.04685C0.970513 5.87459 1.05489 5.61794 1.26934 5.55818L5.92403 4.30662C5.99786 4.28552 6.06114 4.23982 6.09981 4.17654L8.7295 0.140601C8.84903 -0.0457275 9.12325 -0.0457275 9.24278 0.140601L11.8725 4.18005C11.9147 4.24333 11.9779 4.28904 12.0482 4.31013L16.7029 5.56169C16.9174 5.61794 17.0018 5.8781 16.8611 6.05037L13.8342 9.79802C13.7885 9.85779 13.7639 9.93162 13.7674 10.0054L14.0135 14.8183C14.024 15.0398 13.8061 15.198 13.5986 15.1207L9.09864 13.398C9.02481 13.3699 8.94747 13.3699 8.87715 13.3945Z" fill="#FFB636"/>
<path d="M16.0343 1.81755L14.5929 0.37614C14.5507 0.333953 14.4945 0.316375 14.4382 0.323406C14.382 0.330437 14.3292 0.365594 14.3011 0.414812L12.814 3.34333C12.7718 3.41716 12.7859 3.50505 12.8456 3.56481C12.8808 3.59997 12.93 3.61755 12.9757 3.61755C13.0074 3.61755 13.039 3.61052 13.0671 3.59294L15.9921 2.10934C16.0413 2.08122 16.0765 2.032 16.0835 1.97223C16.0941 1.91598 16.073 1.85973 16.0343 1.81755ZM5.24135 3.34684L3.75424 0.418328C3.72612 0.369109 3.6769 0.333953 3.61713 0.326922C3.56088 0.31989 3.50112 0.337469 3.46244 0.379656L2.02104 1.82106C1.97885 1.86325 1.96127 1.9195 1.9683 1.97575C1.97533 2.032 2.01049 2.08473 2.05971 2.11286L4.98823 3.59997C5.01635 3.61755 5.04799 3.62458 5.07963 3.62458C5.12885 3.62458 5.17455 3.607 5.20971 3.57184C5.26948 3.50856 5.28002 3.41716 5.24135 3.34684ZM10.1878 17.7609L9.1683 14.639C9.16127 14.6074 9.14369 14.5793 9.1226 14.5582C9.08744 14.523 9.04174 14.5054 8.99252 14.5054C8.90815 14.5054 8.83783 14.5617 8.81323 14.6425L7.79369 17.7644C7.77963 17.8207 7.79018 17.8804 7.82534 17.9261C7.86049 17.9718 7.91323 18 7.97299 18H10.0085C10.0648 18 10.121 17.9718 10.1562 17.9261C10.1949 17.8769 10.2054 17.8172 10.1878 17.7609Z" fill="#FFD469"/>
</g>
<defs>
<clipPath id="clip0_9836_56673">
<rect width="18" height="18" fill="white"/>
</clipPath>
</defs>
</svg>
